<?xml version="1.0" encoding="utf-8"?>
<!-- Generator: Adobe Illustrator 15.0.0, SVG Export Plug-In  -->
<!DOCTYPE svg PUBLIC "-//W3C//DTD SVG 1.1//EN" "http://www.w3.org/Graphics/SVG/1.1/DTD/svg11.dtd" [
	<!ENTITY ns_flows "http://ns.adobe.com/Flows/1.0/">
]>
<svg version="1.1"
	 xmlns="http://www.w3.org/2000/svg" xmlns:xlink="http://www.w3.org/1999/xlink" xmlns:a="http://ns.adobe.com/AdobeSVGViewerExtensions/3.0/"
	 x="0px" y="0px" width="318px" height="298px" viewBox="-19.303 -21.915 318 298"
	 overflow="visible" enable-background="new -19.303 -21.915 318 298" xml:space="preserve">
<style type="text/css">
<![CDATA[
]]>
</style>
<defs>
</defs>
<polygon fill="none" stroke="#000000" stroke-width="8" stroke-miterlimit="10" points="45.719,200.01 4.619,128.822 45.719,57.634 
	127.92,57.634 169.021,128.822 127.92,200.01 "/>
<polygon fill="none" stroke="#000000" stroke-width="8" stroke-miterlimit="10" points="100.154,200.01 59.054,128.822 
	100.154,57.634 182.355,57.634 223.456,128.822 182.355,200.01 "/>
<polygon fill="none" stroke="#000000" stroke-width="8" stroke-miterlimit="10" points="155.59,200.01 114.489,128.822 
	155.59,57.634 237.791,57.634 278.891,128.822 237.791,200.01 "/>
<path fill="none" stroke="#000000" stroke-width="8" stroke-miterlimit="10" d="M138.021,130.821c0,0-18.25,24.938-37.75,20.188
	c-15.344-3.738-19.25-16.617-19.25-22.188s3.906-18.45,19.25-22.188c19.5-4.75,37.75,20.188,37.75,20.188"/>
<path fill="none" stroke="#000000" stroke-width="8" stroke-miterlimit="10" d="M144.489,130.821c0,0,18.25,24.938,37.75,20.188
	c15.344-3.738,19.25-16.617,19.25-22.188s-3.906-18.45-19.25-22.188c-19.5-4.75-37.75,20.188-37.75,20.188"/>
<text transform="matrix(1 0 0 1 43.9453 43.0322)" font-family="'Guilder'" font-size="48">BEEHOUSE LIBRARY</text>
<text transform="matrix(1 0 0 1 57.4409 252.0098)" font-family="'Guilder'" font-size="48">NYC - EST. 2015</text>
</svg>
