<?xml version="1.0" encoding="utf-8"?>
<!-- Generator: Adobe Illustrator 15.0.0, SVG Export Plug-In  -->
<!DOCTYPE svg PUBLIC "-//W3C//DTD SVG 1.1//EN" "http://www.w3.org/Graphics/SVG/1.1/DTD/svg11.dtd" [
	<!ENTITY ns_flows "http://ns.adobe.com/Flows/1.0/">
]>
<svg version="1.1"
	 xmlns="http://www.w3.org/2000/svg" xmlns:xlink="http://www.w3.org/1999/xlink" xmlns:a="http://ns.adobe.com/AdobeSVGViewerExtensions/3.0/"
	 x="0px" y="0px" width="100px" height="63px" viewBox="0 -4.639 100 63"
	 overflow="visible" enable-background="new 0 -4.639 100 63" xml:space="preserve">
<style type="text/css">
<![CDATA[
]]>
</style>
<defs>
</defs>
<path d="M45.827,52.916H15.275L0,26.458L15.275,0h30.551l15.276,26.458L45.827,52.916z M16.901,50.102h27.3l13.651-23.644
	L44.201,2.815h-27.3L3.25,26.458L16.901,50.102z"/>
<path d="M64.982,52.916H34.431L19.155,26.458L34.431,0h30.551l15.275,26.458L64.982,52.916z M36.056,50.102h27.301l13.649-23.644
	L63.357,2.815H36.056l-13.65,23.643L36.056,50.102z"/>
<path d="M84.489,52.916H53.938L38.662,26.458L53.938,0h30.551l15.275,26.458L84.489,52.916z M55.563,50.102h27.3l13.65-23.644
	L82.864,2.815h-27.3L41.913,26.458L55.563,50.102z"/>
<path d="M37.065,35.887c-0.694,0-1.4-0.079-2.114-0.253c-5.758-1.403-7.848-6.256-7.848-9.176s2.09-7.772,7.848-9.176
	c7.688-1.87,14.468,7.251,14.753,7.641l-2.096,1.534l2.096,1.536C49.446,28.346,43.842,35.887,37.065,35.887z M37.068,19.846
	c-0.482,0-0.966,0.054-1.451,0.172c-4.676,1.139-5.7,5.035-5.7,6.44s1.024,5.302,5.7,6.44c5.446,1.33,10.923-5.416,11.717-6.44
	C46.614,25.527,42.001,19.846,37.068,19.846z"/>
<path d="M62.347,35.887c-6.777,0-12.38-7.541-12.639-7.894l2.098-1.535l-0.962,0.703l0.961-0.704l-2.097-1.534
	c0.285-0.39,7.069-9.511,14.752-7.641c5.759,1.403,7.849,6.256,7.849,9.176s-2.09,7.772-7.848,9.176
	C63.748,35.808,63.041,35.887,62.347,35.887z M52.077,26.457c0.794,1.024,6.27,7.771,11.718,6.441
	c4.675-1.139,5.699-5.035,5.699-6.44s-1.024-5.302-5.7-6.44C58.329,18.685,52.867,25.436,52.077,26.457z"/>
</svg>
