<?xml version="1.0" encoding="utf-8"?>
<!-- Generator: Adobe Illustrator 15.0.0, SVG Export Plug-In  -->
<!DOCTYPE svg PUBLIC "-//W3C//DTD SVG 1.1//EN" "http://www.w3.org/Graphics/SVG/1.1/DTD/svg11.dtd" [
	<!ENTITY ns_flows "http://ns.adobe.com/Flows/1.0/">
]>
<svg version="1.1"
	 xmlns="http://www.w3.org/2000/svg" xmlns:xlink="http://www.w3.org/1999/xlink" xmlns:a="http://ns.adobe.com/AdobeSVGViewerExtensions/3.0/"
	 x="0px" y="0px" width="294px" height="264px" viewBox="-6.303 -7.883 294 264"
	 overflow="visible" enable-background="new -6.303 -7.883 294 264" xml:space="preserve">
<style type="text/css">
<![CDATA[
]]>
</style>
<defs>
</defs>
<polygon fill="none" stroke="#000000" stroke-width="8" stroke-miterlimit="10" points="45.719,195.042 4.619,123.854 
	45.719,52.666 127.92,52.666 169.021,123.854 127.92,195.042 "/>
<polygon fill="none" stroke="#000000" stroke-width="8" stroke-miterlimit="10" points="100.154,195.042 59.054,123.854 
	100.154,52.666 182.355,52.666 223.456,123.854 182.355,195.042 "/>
<polygon fill="none" stroke="#000000" stroke-width="8" stroke-miterlimit="10" points="155.59,195.042 114.489,123.854 
	155.59,52.666 237.791,52.666 278.891,123.854 237.791,195.042 "/>
<path fill="none" stroke="#000000" stroke-width="8" stroke-miterlimit="10" d="M138.021,125.853c0,0-18.25,24.938-37.75,20.188
	c-15.344-3.738-19.25-16.617-19.25-22.188s3.906-18.45,19.25-22.188c19.5-4.75,37.75,20.188,37.75,20.188"/>
<path fill="none" stroke="#000000" stroke-width="8" stroke-miterlimit="10" d="M144.489,125.853c0,0,18.25,24.938,37.75,20.188
	c15.344-3.738,19.25-16.617,19.25-22.188s-3.906-18.45-19.25-22.188c-19.5-4.75-37.75,20.188-37.75,20.188"/>
<path d="M55.729,15.648c0,0.96-0.137,1.672-0.408,2.136c-0.272,0.464-0.584,0.888-0.936,1.272c0.352,0.353,0.664,0.76,0.936,1.224
	c0.271,0.464,0.408,1.193,0.408,2.184v10.752c0,1.152-0.144,2.048-0.432,2.688c-0.288,0.641-0.672,1.121-1.152,1.44
	c-0.48,0.32-1.008,0.521-1.584,0.6c-0.576,0.081-1.152,0.12-1.728,0.12h-4.416V0h4.416c0.576,0,1.152,0.041,1.728,0.12
	c0.576,0.08,1.104,0.28,1.584,0.6c0.48,0.32,0.864,0.8,1.152,1.44s0.432,1.536,0.432,2.688V15.648z M52.849,5.328
	c0-0.607-0.041-1.08-0.12-1.416c-0.08-0.336-0.2-0.576-0.36-0.72C52.208,3.048,52,2.96,51.745,2.928
	c-0.257-0.031-0.561-0.048-0.912-0.048h-1.536v14.736h0.96c0.512,0,0.936-0.024,1.272-0.072c0.336-0.048,0.6-0.151,0.792-0.312
	c0.192-0.16,0.328-0.408,0.408-0.744c0.08-0.336,0.12-0.775,0.12-1.32V5.328z M52.849,22.944c0-1.087-0.185-1.768-0.552-2.04
	c-0.368-0.271-1.048-0.408-2.04-0.408h-0.96v14.688h1.536c0.352,0,0.655-0.016,0.912-0.048c0.256-0.031,0.463-0.12,0.624-0.264
	c0.16-0.144,0.28-0.384,0.36-0.72c0.08-0.336,0.12-0.808,0.12-1.416V22.944z"/>
<path d="M61.92,2.88v14.736h4.992v2.88H61.92v14.688h6.432v2.88H59.04V0h9.312v2.88H61.92z"/>
<path d="M74.016,2.88v14.736h4.992v2.88h-4.992v14.688h6.432v2.88h-9.312V0h9.312v2.88H74.016z"/>
<path d="M93.311,0v38.064h-2.88V20.496h-3.552v17.568h-2.88V0h2.88v17.616h3.552V0H93.311z"/>
<path d="M101.615,38.064c-1.728-0.064-2.928-0.52-3.6-1.368c-0.672-0.847-1.008-2.008-1.008-3.48V4.848
	c0.064-1.6,0.439-2.808,1.128-3.624C98.823,0.408,99.983,0,101.615,0c1.664,0.064,2.856,0.584,3.576,1.56
	c0.72,0.977,1.08,2.232,1.08,3.768v27.888c-0.064,1.601-0.449,2.808-1.152,3.624C104.415,37.656,103.247,38.064,101.615,38.064z
	 M101.615,2.88c-0.416,0-0.736,0.096-0.96,0.288c-0.224,0.192-0.392,0.424-0.504,0.696c-0.112,0.272-0.185,0.584-0.216,0.936
	c-0.033,0.353-0.048,0.688-0.048,1.008v26.448c0.032,0.768,0.136,1.448,0.312,2.04c0.176,0.593,0.648,0.888,1.416,0.888
	c0.416,0,0.744-0.088,0.984-0.264c0.24-0.175,0.416-0.408,0.528-0.696c0.112-0.288,0.184-0.6,0.216-0.936
	c0.032-0.336,0.048-0.68,0.048-1.032V5.808c-0.032-0.8-0.144-1.488-0.336-2.064C102.863,3.168,102.383,2.88,101.615,2.88z"/>
<path d="M113.951,38.064c-1.728-0.064-2.928-0.52-3.6-1.368c-0.672-0.847-1.008-2.008-1.008-3.48V0h2.88v32.256
	c0.032,0.768,0.136,1.448,0.312,2.04c0.176,0.593,0.648,0.888,1.416,0.888c0.416,0,0.744-0.088,0.984-0.264
	c0.24-0.175,0.416-0.408,0.528-0.696c0.112-0.288,0.184-0.6,0.216-0.936c0.032-0.336,0.048-0.68,0.048-1.032V0h2.88v33.216
	c-0.064,1.601-0.449,2.808-1.152,3.624C116.75,37.656,115.583,38.064,113.951,38.064z"/>
<path d="M126.382,38.064c-1.76-0.064-2.976-0.496-3.648-1.296c-0.672-0.8-1.008-1.984-1.008-3.552V30h2.88v2.736
	c0,0.833,0.104,1.448,0.312,1.848c0.208,0.4,0.696,0.6,1.464,0.6c0.416,0,0.736-0.104,0.96-0.312
	c0.223-0.208,0.391-0.472,0.504-0.792c0.112-0.32,0.184-0.664,0.216-1.032c0.032-0.367,0.048-0.711,0.048-1.032c0-0.8,0-1.68,0-2.64
	s-0.08-1.96-0.24-3c-0.161-1.04-0.44-2.104-0.84-3.192c-0.401-1.087-0.984-2.144-1.752-3.168c-0.832-1.12-1.488-2.232-1.968-3.336
	s-0.84-2.24-1.08-3.408c-0.24-1.168-0.384-2.383-0.432-3.648c-0.048-1.264-0.072-2.616-0.072-4.056
	c0.032-0.799,0.136-1.536,0.312-2.208c0.175-0.672,0.448-1.255,0.816-1.752c0.368-0.496,0.84-0.888,1.416-1.176
	C124.847,0.144,125.534,0,126.334,0c1.664,0,2.856,0.36,3.576,1.08c0.72,0.72,1.08,1.816,1.08,3.288v3.696h-2.88V5.328
	c0-0.8-0.112-1.408-0.336-1.824c-0.224-0.416-0.704-0.624-1.44-0.624c-0.416,0-0.736,0.104-0.96,0.312
	c-0.224,0.208-0.392,0.473-0.504,0.792c-0.112,0.32-0.185,0.665-0.216,1.032c-0.033,0.368-0.048,0.712-0.048,1.032
	c0,0.992,0.016,2,0.048,3.024c0.031,1.025,0.127,2.04,0.288,3.048c0.16,1.008,0.432,2.008,0.816,3
	c0.384,0.992,0.943,1.968,1.68,2.928c0.864,1.152,1.536,2.328,2.016,3.528c0.48,1.2,0.832,2.417,1.056,3.648
	c0.223,1.232,0.36,2.456,0.408,3.672c0.048,1.216,0.072,2.417,0.072,3.6c-0.064,1.601-0.449,2.928-1.152,3.984
	C129.134,37.536,127.982,38.064,126.382,38.064z"/>
<path d="M136.51,2.88v14.736h4.992v2.88h-4.992v14.688h6.432v2.88h-9.312V0h9.312v2.88H136.51z"/>
<path d="M155.085,38.064V0h2.88v35.184h5.952v2.88H155.085z"/>
<path d="M167.133,38.064V0h2.88v38.064H167.133z"/>
<path d="M183.116,15.648c0,0.96-0.137,1.672-0.408,2.136c-0.272,0.464-0.584,0.888-0.936,1.272c0.352,0.353,0.664,0.76,0.936,1.224
	c0.271,0.464,0.408,1.193,0.408,2.184v10.752c0,1.152-0.144,2.048-0.432,2.688c-0.288,0.641-0.672,1.121-1.152,1.44
	c-0.48,0.32-1.008,0.521-1.584,0.6c-0.576,0.081-1.152,0.12-1.728,0.12h-4.416V0h4.416c0.576,0,1.152,0.041,1.728,0.12
	c0.576,0.08,1.104,0.28,1.584,0.6c0.48,0.32,0.864,0.8,1.152,1.44s0.432,1.536,0.432,2.688V15.648z M180.236,5.328
	c0-0.607-0.041-1.08-0.12-1.416c-0.08-0.336-0.2-0.576-0.36-0.72c-0.161-0.144-0.368-0.231-0.624-0.264
	c-0.257-0.031-0.561-0.048-0.912-0.048h-1.536v14.736h0.96c0.512,0,0.936-0.024,1.272-0.072c0.336-0.048,0.6-0.151,0.792-0.312
	c0.192-0.16,0.328-0.408,0.408-0.744c0.08-0.336,0.12-0.775,0.12-1.32V5.328z M180.236,22.944c0-1.087-0.185-1.768-0.552-2.04
	c-0.368-0.271-1.048-0.408-2.04-0.408h-0.96v14.688h1.536c0.352,0,0.655-0.016,0.912-0.048c0.256-0.031,0.463-0.12,0.624-0.264
	c0.16-0.144,0.28-0.384,0.36-0.72c0.08-0.336,0.12-0.808,0.12-1.416V22.944z"/>
<path d="M195.691,15.168c0,0.416-0.024,0.872-0.071,1.368s-0.134,0.968-0.26,1.416c-0.126,0.448-0.322,0.84-0.589,1.176
	c-0.268,0.336-0.606,0.552-1.015,0.648c0.409,0,0.747,0.168,1.015,0.504s0.473,0.744,0.614,1.224c0.141,0.48,0.235,1,0.283,1.56
	c0.047,0.56,0.071,1.08,0.071,1.56v8.016c0,1.056,0.024,1.92,0.072,2.592c0.048,0.672,0.112,1.2,0.192,1.584
	c0.079,0.384,0.168,0.665,0.264,0.84c0.096,0.176,0.192,0.312,0.288,0.408h-2.845c-0.094-0.064-0.182-0.151-0.26-0.264
	c-0.079-0.112-0.157-0.319-0.235-0.624c-0.079-0.304-0.142-0.744-0.189-1.32c-0.047-0.576-0.071-1.344-0.071-2.304v-9.504
	c0-1.087-0.12-1.864-0.36-2.328c-0.24-0.463-0.488-0.775-0.744-0.936c-0.224-0.16-0.464-0.248-0.72-0.264
	c-0.257-0.016-0.464-0.024-0.624-0.024h-1.2v17.568h-2.88V0h4.727c0.86,0,1.576,0.096,2.149,0.288
	c0.573,0.192,1.035,0.488,1.385,0.888c0.35,0.401,0.596,0.92,0.74,1.56c0.143,0.641,0.231,1.392,0.263,2.256V15.168z
	 M190.699,17.616c0.832,0,1.392-0.16,1.68-0.48c0.288-0.319,0.448-0.976,0.48-1.968v-9.84c0-0.736-0.104-1.32-0.312-1.752
	c-0.208-0.432-0.776-0.664-1.704-0.696h-1.536v14.736H190.699z"/>
<path d="M200.875,38.064h-2.88L201.596,0h4.656l3.6,38.064h-2.88l-1.248-13.2h-3.6L200.875,38.064z M203.9,5.376l-0.384,4.512
	l-1.104,12.096h3.024l-1.152-12.048L203.9,5.376z"/>
<path d="M221.612,15.168c0,0.416-0.024,0.872-0.071,1.368s-0.134,0.968-0.26,1.416c-0.126,0.448-0.322,0.84-0.589,1.176
	c-0.268,0.336-0.606,0.552-1.015,0.648c0.409,0,0.747,0.168,1.015,0.504s0.473,0.744,0.614,1.224c0.141,0.48,0.235,1,0.283,1.56
	c0.047,0.56,0.071,1.08,0.071,1.56v8.016c0,1.056,0.024,1.92,0.072,2.592c0.048,0.672,0.112,1.2,0.192,1.584
	c0.079,0.384,0.168,0.665,0.264,0.84c0.096,0.176,0.192,0.312,0.288,0.408h-2.845c-0.094-0.064-0.182-0.151-0.26-0.264
	c-0.079-0.112-0.157-0.319-0.235-0.624c-0.079-0.304-0.142-0.744-0.189-1.32c-0.047-0.576-0.071-1.344-0.071-2.304v-9.504
	c0-1.087-0.12-1.864-0.36-2.328c-0.24-0.463-0.488-0.775-0.744-0.936c-0.224-0.16-0.464-0.248-0.72-0.264
	c-0.257-0.016-0.464-0.024-0.624-0.024h-1.2v17.568h-2.88V0h4.727c0.86,0,1.576,0.096,2.149,0.288
	c0.573,0.192,1.035,0.488,1.385,0.888c0.35,0.401,0.596,0.92,0.74,1.56c0.143,0.641,0.231,1.392,0.263,2.256V15.168z M216.62,17.616
	c0.832,0,1.392-0.16,1.68-0.48c0.288-0.319,0.448-0.976,0.48-1.968v-9.84c0-0.736-0.104-1.32-0.312-1.752
	c-0.208-0.432-0.776-0.664-1.704-0.696h-1.536v14.736H216.62z"/>
<path d="M235.244,0l-4.512,19.2v18.864h-2.88V19.248L223.292,0h2.976l3.024,13.344L232.268,0H235.244z"/>
<path d="M72.201,247.042h-3.744l-4.608-22.752l-0.864-5.184v27.936h-2.88v-38.064h3.648l4.608,23.28l0.96,6.672v-29.952h2.88
	V247.042z"/>
<path d="M86.841,208.978l-4.512,19.2v18.864h-2.88v-18.816l-4.56-19.248h2.976l3.024,13.344l2.976-13.344H86.841z"/>
<path d="M93.272,247.042c-1.728-0.064-2.928-0.52-3.6-1.368c-0.672-0.847-1.008-2.008-1.008-3.48v-28.368
	c0.064-1.6,0.439-2.808,1.128-3.624c0.688-0.816,1.848-1.224,3.48-1.224c1.664,0.064,2.856,0.504,3.576,1.32
	c0.72,0.816,1.08,1.992,1.08,3.528v3.216h-2.88v-2.736c-0.032-0.8-0.144-1.408-0.336-1.824c-0.192-0.416-0.672-0.624-1.44-0.624
	c-0.416,0-0.736,0.064-0.96,0.192c-0.224,0.128-0.392,0.305-0.504,0.528c-0.112,0.224-0.185,0.488-0.216,0.792
	c-0.033,0.304-0.048,0.616-0.048,0.936v27.408c0.032,0.768,0.136,1.368,0.312,1.8c0.176,0.432,0.648,0.648,1.416,0.648
	c0.832,0,1.336-0.24,1.512-0.72c0.175-0.48,0.264-1.056,0.264-1.728v-2.736h2.88v3.216c-0.064,1.601-0.449,2.808-1.152,3.624
	C96.072,246.633,94.904,247.042,93.272,247.042z"/>
<path d="M121.352,229.474h-9.6v-2.88h9.6V229.474z"/>
<path d="M135.895,211.857v14.736h4.992v2.88h-4.992v14.688h6.432v2.88h-9.312v-38.064h9.312v2.88H135.895z"/>
<path d="M148.998,247.042c-1.76-0.064-2.976-0.496-3.648-1.296c-0.672-0.8-1.008-1.984-1.008-3.552v-3.216h2.88v2.736
	c0,0.833,0.104,1.448,0.312,1.848c0.208,0.4,0.696,0.6,1.464,0.6c0.416,0,0.736-0.104,0.96-0.312
	c0.223-0.208,0.391-0.472,0.504-0.792c0.112-0.32,0.184-0.664,0.216-1.032c0.032-0.367,0.048-0.711,0.048-1.032c0-0.8,0-1.68,0-2.64
	s-0.08-1.96-0.24-3c-0.161-1.04-0.44-2.104-0.84-3.192c-0.401-1.087-0.984-2.144-1.752-3.168c-0.832-1.12-1.488-2.232-1.968-3.336
	s-0.84-2.24-1.08-3.408c-0.24-1.168-0.384-2.383-0.432-3.648c-0.048-1.264-0.072-2.616-0.072-4.056
	c0.032-0.799,0.136-1.536,0.312-2.208c0.175-0.672,0.448-1.255,0.816-1.752c0.368-0.496,0.84-0.888,1.416-1.176
	c0.576-0.288,1.264-0.432,2.064-0.432c1.664,0,2.856,0.36,3.576,1.08c0.72,0.72,1.08,1.816,1.08,3.288v3.696h-2.88v-2.736
	c0-0.8-0.112-1.408-0.336-1.824c-0.224-0.416-0.704-0.624-1.44-0.624c-0.416,0-0.736,0.104-0.96,0.312
	c-0.224,0.208-0.392,0.473-0.504,0.792c-0.112,0.32-0.185,0.665-0.216,1.032c-0.033,0.368-0.048,0.712-0.048,1.032
	c0,0.992,0.016,2,0.048,3.024c0.031,1.025,0.127,2.04,0.288,3.048c0.16,1.008,0.432,2.008,0.816,3
	c0.384,0.992,0.943,1.968,1.68,2.928c0.864,1.152,1.536,2.328,2.016,3.528c0.48,1.2,0.832,2.417,1.056,3.648
	c0.223,1.232,0.36,2.456,0.408,3.672c0.048,1.216,0.072,2.417,0.072,3.6c-0.064,1.601-0.449,2.928-1.152,3.984
	C151.75,246.514,150.598,247.042,148.998,247.042z"/>
<path d="M164.982,211.857h-3.216v35.184h-2.88v-35.184h-3.216v-2.88h3.216h2.88h3.216V211.857z"/>
<path d="M163.686,245.554c0-0.48,0.168-0.896,0.504-1.248c0.336-0.352,0.76-0.528,1.272-0.528c0.512,0,0.936,0.176,1.272,0.528
	c0.336,0.353,0.504,0.768,0.504,1.248c0,0.512-0.168,0.936-0.504,1.272s-0.76,0.504-1.272,0.504c-0.512,0-0.936-0.168-1.272-0.504
	S163.686,246.066,163.686,245.554z"/>
<path d="M187.013,247.042h-9.264v-2.928c0-2.431,0.224-4.864,0.672-7.296c0.64-3.104,1.6-5.792,2.88-8.064
	c0.64-1.152,1.144-2.383,1.512-3.696c0.368-1.312,0.648-2.616,0.84-3.912c0.192-1.296,0.32-2.527,0.384-3.696
	c0.063-1.168,0.096-2.2,0.096-3.096c-0.032-0.768-0.136-1.375-0.312-1.824c-0.176-0.448-0.648-0.672-1.416-0.672
	c-0.832,0-1.336,0.249-1.512,0.744c-0.176,0.497-0.264,1.08-0.264,1.752v2.688h-2.88v-3.216c0.064-1.664,0.424-2.888,1.08-3.672
	c0.655-0.784,1.848-1.176,3.576-1.176c1.696,0.064,2.888,0.521,3.576,1.368c0.688,0.848,1.032,2.008,1.032,3.48
	c0,1.408-0.041,2.856-0.12,4.344c-0.08,1.488-0.249,2.952-0.504,4.392c-0.576,2.944-1.44,5.472-2.592,7.584
	c-0.704,1.248-1.264,2.528-1.68,3.84c-0.417,1.312-0.737,2.592-0.96,3.84c-0.225,1.248-0.369,2.417-0.432,3.504
	c-0.064,1.088-0.096,2.016-0.096,2.784v0.048h6.384V247.042z"/>
<path d="M194.836,247.042c-1.728-0.064-2.928-0.52-3.6-1.368c-0.672-0.847-1.008-2.008-1.008-3.48v-28.368
	c0.064-1.6,0.439-2.808,1.128-3.624c0.688-0.816,1.848-1.224,3.48-1.224c1.664,0.064,2.856,0.504,3.576,1.32
	c0.72,0.816,1.08,1.992,1.08,3.528v28.368c-0.064,1.601-0.456,2.808-1.176,3.624C197.597,246.633,196.436,247.042,194.836,247.042z
	 M194.836,211.857c-0.833,0.032-1.328,0.305-1.488,0.816c-0.161,0.512-0.24,1.104-0.24,1.776v27.072
	c0.032,0.768,0.136,1.4,0.312,1.896c0.176,0.497,0.648,0.744,1.416,0.744c0.416,0,0.736-0.08,0.96-0.24
	c0.224-0.16,0.4-0.36,0.528-0.6c0.127-0.24,0.208-0.52,0.24-0.84c0.032-0.319,0.048-0.64,0.048-0.96V214.45
	c-0.032-0.768-0.144-1.392-0.336-1.872C196.084,212.098,195.604,211.857,194.836,211.857z"/>
<path d="M205.924,247.042v-32.736l-1.296,1.728l-2.304-1.728l3.984-5.328h2.496v38.064H205.924z"/>
<path d="M217.491,247.042c-1.76-0.064-2.976-0.496-3.648-1.296c-0.672-0.8-1.008-1.984-1.008-3.552v-1.92h2.88v1.344
	c0.032,0.833,0.144,1.464,0.336,1.896c0.192,0.432,0.672,0.648,1.44,0.648c0.416,0,0.736-0.072,0.96-0.216
	c0.223-0.144,0.391-0.336,0.504-0.576c0.112-0.24,0.184-0.512,0.216-0.816c0.032-0.304,0.048-0.616,0.048-0.936v-13.392
	c-0.032-0.768-0.136-1.368-0.312-1.8c-0.176-0.432-0.648-0.648-1.416-0.648c-0.352,0-0.64,0.081-0.864,0.24
	c-0.224,0.161-0.408,0.36-0.552,0.6c-0.144,0.24-0.24,0.48-0.288,0.72c-0.048,0.24-0.072,0.44-0.072,0.6v0.768h-2.88v-0.768v-18.96
	h9.264v2.88h-6.384v12.72c0.064-0.352,0.295-0.72,0.696-1.104c0.399-0.384,1.063-0.576,1.992-0.576c1.12,0,2.016,0.4,2.688,1.2
	c0.672,0.8,1.008,2.016,1.008,3.648v14.448c-0.064,1.601-0.44,2.808-1.128,3.624C220.282,246.633,219.123,247.042,217.491,247.042z"
	/>
</svg>
